<?xml version="1.0" ?><svg xmlns="http://www.w3.org/2000/svg" viewBox="0 0 32 32"><title/><g id="_2" data-name="2"><path d="M22.76,14h-9L10,9.37a1,1,0,1,0-1.56,1.25L11.18,14H9.26a1,1,0,0,0-1,1.13l2,15a1,1,0,0,0,1,.87h10a1,1,0,0,0,1-.9l1.5-15a1,1,0,0,0-1-1.1ZM20.36,29H12.14L11,20.65a1.27,1.27,0,0,1,.76-.35c.08,0,.37,0,.77.4l.59.6c1,1.08,1.65,1.71,2.94,1.71h.25a2.68,2.68,0,0,0,1.94-1.26c.42-.53.62-.74,1-.74h0c.71,0,1.4.77,1.75,1.25Zm.93-9.31a3.45,3.45,0,0,0-2-.69h0a3.19,3.19,0,0,0-2.55,1.5c-.14.18-.4.5-.49.51-.51,0-.58,0-1.64-1.09l-.6-.62a3.08,3.08,0,0,0-2.23-1,2.84,2.84,0,0,0-1,.21L10.41,16H21.66Z"/><path d="M26.71,8.28a1,1,0,0,0-1.15-.19,3.47,3.47,0,0,1-4.65-4.64A1,1,0,0,0,19.57,2.1a5.49,5.49,0,0,0-3,4.5h0c0,.13,0,.27,0,.4A5.47,5.47,0,0,0,26.9,9.43,1,1,0,0,0,26.71,8.28ZM22,10.47a3.47,3.47,0,0,1-3.07-1.85A3.43,3.43,0,0,1,18.53,7c0-.09,0-.17,0-.26a3.47,3.47,0,0,1,.12-.69,5.47,5.47,0,0,0,4.29,4.28A3.5,3.5,0,0,1,22,10.47Z"/></g></svg>