<?xml version="1.0" encoding="UTF-8" standalone="no"?>
<!-- Created with Inkscape (http://www.inkscape.org/) -->

<svg
   width="210mm"
   height="297mm"
   viewBox="0 0 210 297"
   version="1.1"
   id="svg303"
   xml:space="preserve"
   inkscape:version="1.2.2 (732a01da63, 2022-12-09)"
   sodipodi:docname="LOGO_ORIGINAL_REST.svg"
   inkscape:export-filename="LOGORESTAURANT1.png"
   inkscape:export-xdpi="68.985413"
   inkscape:export-ydpi="68.985413"
   xmlns:inkscape="http://www.inkscape.org/namespaces/inkscape"
   xmlns:sodipodi="http://sodipodi.sourceforge.net/DTD/sodipodi-0.dtd"
   xmlns="http://www.w3.org/2000/svg"
   xmlns:svg="http://www.w3.org/2000/svg"
   xmlns:rdf="http://www.w3.org/1999/02/22-rdf-syntax-ns#"
   xmlns:cc="http://creativecommons.org/ns#"
   xmlns:dc="http://purl.org/dc/elements/1.1/"><title
     id="title2298">FriendsBarLogo</title><sodipodi:namedview
     id="namedview305"
     pagecolor="#505050"
     bordercolor="#eeeeee"
     borderopacity="1"
     inkscape:showpageshadow="0"
     inkscape:pageopacity="0"
     inkscape:pagecheckerboard="0"
     inkscape:deskcolor="#505050"
     inkscape:document-units="mm"
     showgrid="false"
     inkscape:zoom="0.88016274"
     inkscape:cx="396.51758"
     inkscape:cy="485.13756"
     inkscape:window-width="1366"
     inkscape:window-height="697"
     inkscape:window-x="-8"
     inkscape:window-y="-8"
     inkscape:window-maximized="1"
     inkscape:current-layer="layer1" /><defs
     id="defs300" /><g
     inkscape:label="Capa 1"
     inkscape:groupmode="layer"
     id="layer1"><text
       xml:space="preserve"
       style="font-size:64.2751px;font-family:'Sweet Hipster';-inkscape-font-specification:'Sweet Hipster, Normal';fill:#ffffff;stroke:#ffffff;stroke-width:0.190779;stroke-opacity:0"
       x="8.829627"
       y="120.42162"
       id="text415"
       transform="scale(1.0170587,0.98322739)"
       inkscape:export-filename="LOGORESTAURANT2.png"
       inkscape:export-xdpi="68.985413"
       inkscape:export-ydpi="68.985413"><tspan
         sodipodi:role="line"
         id="tspan413"
         style="stroke-width:0.190779"
         x="8.829627"
         y="120.42162">Friends Bar</tspan></text><text
       xml:space="preserve"
       style="font-size:21.1236px;font-family:'Sweet Hipster';-inkscape-font-specification:'Sweet Hipster, Normal';fill:#ffffff;stroke:#ffffff;stroke-width:0.0626977;stroke-opacity:0"
       x="26.241261"
       y="178.46477"
       id="text469"
       transform="scale(1.2177795,0.82116669)"><tspan
         sodipodi:role="line"
         id="tspan467"
         style="stroke-width:0.0626986"
         x="26.241261"
         y="178.46477">Tu Lugar de Encuentro</tspan></text><g
       id="_2"
       data-name="2"
       transform="matrix(1.448838,0,0,1.3487341,90.931977,50.754339)"
       style="fill:#ffffff;fill-opacity:1"><path
         d="m 22.76,14 h -9 L 10,9.37 A 1,1 0 1 0 8.44,10.62 L 11.18,14 H 9.26 a 1,1 0 0 0 -1,1.13 l 2,15 a 1,1 0 0 0 1,0.87 h 10 a 1,1 0 0 0 1,-0.9 l 1.5,-15 a 1,1 0 0 0 -1,-1.1 z m -2.4,15 H 12.14 L 11,20.65 a 1.27,1.27 0 0 1 0.76,-0.35 c 0.08,0 0.37,0 0.77,0.4 l 0.59,0.6 c 1,1.08 1.65,1.71 2.94,1.71 h 0.25 a 2.68,2.68 0 0 0 1.94,-1.26 c 0.42,-0.53 0.62,-0.74 1,-0.74 v 0 c 0.71,0 1.4,0.77 1.75,1.25 z m 0.93,-9.31 a 3.45,3.45 0 0 0 -2,-0.69 v 0 a 3.19,3.19 0 0 0 -2.55,1.5 c -0.14,0.18 -0.4,0.5 -0.49,0.51 -0.51,0 -0.58,0 -1.64,-1.09 l -0.6,-0.62 a 3.08,3.08 0 0 0 -2.23,-1 2.84,2.84 0 0 0 -1,0.21 L 10.41,16 h 11.25 z"
         id="path486"
         style="fill:#ffffff;fill-opacity:1" /><path
         d="M 26.71,8.28 A 1,1 0 0 0 25.56,8.09 3.47,3.47 0 0 1 20.91,3.45 1,1 0 0 0 19.57,2.1 a 5.49,5.49 0 0 0 -3,4.5 v 0 c 0,0.13 0,0.27 0,0.4 A 5.47,5.47 0 0 0 26.9,9.43 1,1 0 0 0 26.71,8.28 Z M 22,10.47 A 3.47,3.47 0 0 1 18.93,8.62 3.43,3.43 0 0 1 18.53,7 c 0,-0.09 0,-0.17 0,-0.26 a 3.47,3.47 0 0 1 0.12,-0.69 5.47,5.47 0 0 0 4.29,4.28 3.5,3.5 0 0 1 -0.94,0.14 z"
         id="path488"
         style="fill:#ffffff;fill-opacity:1" /></g><path
       style="fill:#ffffff;fill-opacity:1;stroke:#ffffff;stroke-width:0.855821;stroke-opacity:0"
       id="path1835"
       d="m 8.8699097,170.35094 c 1.6321223,-0.616 3.1166903,-1.43441 4.7579493,-2.04016 3.101867,-1.21399 6.392056,-2.07997 9.560887,-3.17157 2.319346,-0.97501 4.849119,-1.53909 7.245565,-2.36461 1.993085,-0.59416 3.923202,-1.31793 5.829713,-2.07163 2.059909,-0.67413 4.246052,-1.11919 6.441371,-1.4274 3.065286,-0.53904 6.121504,-1.06608 9.232993,-1.42649 4.306055,-0.37216 8.661053,-0.22821 12.992041,0.0297 3.873077,0.21347 7.716143,0.75856 11.497649,1.53939 3.142091,0.66136 6.261657,1.39565 9.37777,2.14628 3.285309,1.02989 6.664867,1.81614 10.014237,2.67451 4.236635,0.96328 8.459625,2.22783 12.573085,3.53442 3.27128,1.31042 6.52494,2.34674 9.8936,3.47291 3.42377,0.98883 7.04939,1.3331 10.609,1.73834 3.80111,0.44922 7.63535,0.38154 11.42961,0.15314 3.673,-0.26443 7.24347,-0.91428 10.80187,-1.6281 3.81361,-0.7732 7.67123,-1.38083 11.45701,-2.24013 3.42863,-0.78945 6.71375,-1.86187 9.832,-3.24161 3.49839,-1.40349 6.88088,-2.99372 10.29232,-4.53274 3.31421,-1.28888 6.27479,-3.02486 9.19637,-4.81324 2.78602,-1.72496 5.47089,-3.5554 8.2201,-5.31732 1.10089,-0.79216 2.18625,-1.61015 3.40946,-2.27326 l -8.24996,-5.23808 v 0 c -1.18355,0.73208 -2.22945,1.5931 -3.32757,2.40958 -2.55753,1.90869 -5.18538,3.74618 -8.02581,5.37356 -2.90947,1.73024 -5.82278,3.45082 -9.04687,4.78569 -3.38689,1.5738 -6.86554,3.02351 -10.3338,4.47441 -3.11243,1.26477 -6.34788,2.31132 -9.69169,3.12255 -3.77833,0.83387 -7.60433,1.48918 -11.41357,2.22982 -3.54563,0.63463 -7.09908,1.25279 -10.73469,1.50961 -3.75684,0.18959 -7.54722,0.21265 -11.30039,-0.27932 -3.56186,-0.41113 -7.16217,-0.83739 -10.54036,-1.96423 -3.28177,-1.11423 -6.44295,-2.44793 -9.71162,-3.58463 -4.176367,-1.25298 -8.742703,-2.50695 -12.988726,-3.56696 -3.381699,-0.88907 -6.177463,-2.0465 -9.528786,-3.01775 -3.106564,-0.75184 -6.517329,-0.91322 -9.667967,-1.51342 -3.774212,-0.6933 -7.591982,-1.18513 -11.440988,-1.32279 -4.402476,-0.24968 -8.795092,-0.35133 -13.172833,0.0325 -3.224523,0.23141 -6.339607,0.81263 -9.508855,1.29343 -2.291975,0.32085 -4.584481,0.74099 -6.694561,1.53687 -1.913806,0.712 -3.813487,1.44464 -5.77786,2.06302 -2.379203,0.81278 -4.838893,1.47617 -7.123379,2.46258 -3.127402,1.17293 -6.3989264,2.07921 -9.588411,3.13628 -1.8231312,0.58354 -3.5211106,1.36768 -5.33321375,1.97195 l 8.53730945,5.34505 z"
       sodipodi:nodetypes="cccccccccccccccccccccccsccccccccccccccccccccccc" /></g><metadata
     id="metadata2296"><rdf:RDF><cc:Work
         rdf:about=""><dc:title>FriendsBarLogo</dc:title></cc:Work></rdf:RDF></metadata></svg>
